{"glyphs":{"0":{"ha":667,"x_min":56,"x_max":611,"o":"m 403 264 l 403 819 l 264 819 l 264 264 l 403 264 m 611 195 l 472 56 l 195 56 l 56 195 l 56 889 l 195 1028 l 472 1028 l 611 889 l 611 195 z "},"1":{"ha":319,"x_min":56,"x_max":264,"o":"m 264 -40 l 56 -40 l 56 930 l 264 930 l 264 -40 z "},"2":{"ha":667,"x_min":56,"x_max":611,"o":"m 611 28 l 56 28 l 56 479 l 195 618 l 403 618 l 403 791 l 264 791 l 264 722 l 56 722 l 56 861 l 195 1000 l 472 1000 l 611 861 l 611 549 l 472 410 l 264 410 l 264 236 l 611 236 l 611 28 z "},"3":{"ha":681,"x_min":56,"x_max":625,"o":"m 625 208 l 486 69 l 208 69 l 56 222 l 56 347 l 278 347 l 278 278 l 416 278 l 416 452 l 278 452 l 278 660 l 416 660 l 416 833 l 278 833 l 278 764 l 69 764 l 69 903 l 208 1042 l 486 1042 l 625 903 l 625 653 l 528 555 l 625 458 l 625 208 z "},"4":{"ha":667,"x_min":56,"x_max":611,"o":"m 611 -26 l 403 -26 l 403 354 l 56 354 l 56 945 l 264 945 l 264 562 l 403 562 l 403 945 l 611 945 l 611 -26 z "},"5":{"ha":667,"x_min":56,"x_max":611,"o":"m 611 83 l 472 -54 l 195 -54 l 56 83 l 56 222 l 264 222 l 264 153 l 403 153 l 403 326 l 195 326 l 56 465 l 56 917 l 611 917 l 611 708 l 264 708 l 264 534 l 472 534 l 611 396 l 611 83 z "},"6":{"ha":667,"x_min":56,"x_max":611,"o":"m 403 264 l 403 437 l 264 437 l 264 264 l 403 264 m 611 195 l 472 56 l 195 56 l 56 195 l 56 889 l 195 1028 l 472 1028 l 611 889 l 611 750 l 403 750 l 403 819 l 264 819 l 264 646 l 472 646 l 611 507 l 611 195 z "},"7":{"ha":708,"x_min":41,"x_max":667,"o":"m 667 736 l 334 -26 l 97 -26 l 431 736 l 250 736 l 250 667 l 41 667 l 41 945 l 667 945 l 667 736 z "},"8":{"ha":639,"x_min":28,"x_max":611,"o":"m 389 250 l 389 424 l 250 424 l 250 250 l 389 250 m 389 632 l 389 806 l 250 806 l 250 632 l 389 632 m 611 195 l 458 41 l 180 41 l 28 195 l 28 416 l 139 528 l 41 625 l 41 875 l 180 1014 l 458 1014 l 597 875 l 597 625 l 500 528 l 611 416 l 611 195 z "},"9":{"ha":667,"x_min":56,"x_max":611,"o":"m 403 534 l 403 708 l 264 708 l 264 534 l 403 534 m 611 83 l 472 -54 l 195 -54 l 56 83 l 56 222 l 264 222 l 264 153 l 403 153 l 403 326 l 195 326 l 56 465 l 56 778 l 195 917 l 472 917 l 611 778 l 611 83 z "},"#":{"ha":694,"x_min":0,"x_max":0,"o":""},"!":{"ha":319,"x_min":56,"x_max":264,"o":"m 264 56 l 56 56 l 56 264 l 264 264 l 264 56 m 264 750 l 236 334 l 83 334 l 56 750 l 56 1028 l 264 1028 l 264 750 z "},"\"":{"ha":583,"x_min":56,"x_max":528,"o":"m 264 736 l 125 597 l 125 736 l 56 736 l 56 945 l 264 945 l 264 736 m 528 736 l 389 597 l 389 736 l 319 736 l 319 945 l 528 945 l 528 736 z "},"'":{"ha":319,"x_min":56,"x_max":264,"o":"m 264 791 l 125 653 l 125 791 l 56 791 l 56 1000 l 264 1000 l 264 791 z "},"(":{"ha":458,"x_min":56,"x_max":403,"o":"m 403 -110 l 195 -110 l 56 28 l 56 861 l 195 1000 l 403 1000 l 403 791 l 264 791 l 264 97 l 403 97 l 403 -110 z "},")":{"ha":458,"x_min":56,"x_max":403,"o":"m 403 97 l 264 -40 l 56 -40 l 56 167 l 195 167 l 195 861 l 56 861 l 56 1069 l 264 1069 l 403 930 l 403 97 z "},",":{"ha":319,"x_min":56,"x_max":264,"o":"m 264 -26 l 125 -165 l 125 -26 l 56 -26 l 56 180 l 264 180 l 264 -26 z "},".":{"ha":319,"x_min":56,"x_max":264,"o":"m 264 28 l 56 28 l 56 236 l 264 236 l 264 28 z "},":":{"ha":319,"x_min":56,"x_max":264,"o":"m 264 28 l 56 28 l 56 236 l 264 236 l 264 28 m 264 514 l 56 514 l 56 722 l 264 722 l 264 514 z "},";":{"ha":319,"x_min":56,"x_max":264,"o":"m 264 -12 l 125 -151 l 125 -12 l 56 -12 l 56 195 l 264 195 l 264 -12 m 264 472 l 56 472 l 56 681 l 264 681 l 264 472 z "},"?":{"ha":667,"x_min":56,"x_max":611,"o":"m 264 -40 l 56 -40 l 56 167 l 264 167 l 264 -40 m 611 479 l 472 340 l 264 340 l 264 236 l 56 236 l 56 410 l 195 549 l 403 549 l 403 722 l 264 722 l 264 653 l 56 653 l 56 791 l 195 930 l 472 930 l 611 791 l 611 479 z "},"A":{"ha":597,"x_min":-20,"x_max":618,"o":"m 350 444 l 298 746 l 248 444 l 350 444 m 618 97 l 410 97 l 386 236 l 211 236 l 187 97 l -20 97 l 160 1069 l 437 1069 l 618 97 z "},"B":{"ha":653,"x_min":56,"x_max":625,"o":"m 403 250 l 403 424 l 264 424 l 264 250 l 403 250 m 403 632 l 403 806 l 264 806 l 264 632 l 403 632 m 625 195 l 472 41 l 56 41 l 56 1014 l 472 1014 l 611 875 l 611 625 l 514 528 l 625 416 l 625 195 z "},"C":{"ha":667,"x_min":56,"x_max":611,"o":"m 611 83 l 472 -54 l 195 -54 l 56 83 l 56 778 l 195 917 l 472 917 l 611 778 l 611 570 l 403 570 l 403 708 l 264 708 l 264 153 l 403 153 l 403 292 l 611 292 l 611 83 z "},"D":{"ha":667,"x_min":56,"x_max":611,"o":"m 403 195 l 403 750 l 264 750 l 264 195 l 403 195 m 611 125 l 472 -12 l 56 -12 l 56 958 l 472 958 l 611 819 l 611 125 z "},"E":{"ha":597,"x_min":56,"x_max":542,"o":"m 542 -40 l 56 -40 l 56 930 l 542 930 l 542 722 l 264 722 l 264 549 l 542 549 l 542 340 l 264 340 l 264 167 l 542 167 l 542 -40 z "},"F":{"ha":555,"x_min":56,"x_max":542,"o":"m 542 437 l 264 437 l 264 56 l 56 56 l 56 1028 l 542 1028 l 542 819 l 264 819 l 264 646 l 542 646 l 542 437 z "},"G":{"ha":667,"x_min":56,"x_max":611,"o":"m 611 69 l 472 -68 l 195 -68 l 56 69 l 56 764 l 195 903 l 472 903 l 611 764 l 611 555 l 403 555 l 403 694 l 264 694 l 264 139 l 403 139 l 403 243 l 334 243 l 334 452 l 611 452 l 611 69 z "},"H":{"ha":667,"x_min":56,"x_max":611,"o":"m 611 -40 l 403 -40 l 403 340 l 264 340 l 264 -40 l 56 -40 l 56 930 l 264 930 l 264 549 l 403 549 l 403 930 l 611 930 l 611 -40 z "},"I":{"ha":319,"x_min":56,"x_max":264,"o":"m 264 56 l 56 56 l 56 1028 l 264 1028 l 264 56 z "},"J":{"ha":625,"x_min":14,"x_max":570,"o":"m 570 83 l 431 -54 l 153 -54 l 14 83 l 14 292 l 222 292 l 222 153 l 361 153 l 361 917 l 570 917 l 570 83 z "},"K":{"ha":667,"x_min":56,"x_max":611,"o":"m 611 -26 l 403 -26 l 264 361 l 264 -26 l 56 -26 l 56 945 l 264 945 l 264 555 l 403 945 l 611 945 l 437 458 l 611 -26 z "},"L":{"ha":555,"x_min":56,"x_max":542,"o":"m 542 56 l 56 56 l 56 1028 l 264 1028 l 264 264 l 542 264 l 542 56 z "},"M":{"ha":806,"x_min":56,"x_max":750,"o":"m 750 -40 l 542 -40 l 542 306 l 403 -40 l 264 306 l 264 -40 l 56 -40 l 56 930 l 264 930 l 403 583 l 542 930 l 750 930 l 750 -40 z "},"N":{"ha":667,"x_min":56,"x_max":611,"o":"m 611 -26 l 403 -26 l 264 361 l 264 -26 l 56 -26 l 56 945 l 264 945 l 403 555 l 403 945 l 611 945 l 611 -26 z "},"O":{"ha":667,"x_min":56,"x_max":611,"o":"m 403 278 l 403 833 l 264 833 l 264 278 l 403 278 m 611 208 l 472 69 l 195 69 l 56 208 l 56 903 l 195 1042 l 472 1042 l 611 903 l 611 208 z "},"P":{"ha":625,"x_min":56,"x_max":611,"o":"m 403 618 l 403 791 l 264 791 l 264 618 l 403 618 m 611 549 l 472 410 l 264 410 l 264 28 l 56 28 l 56 1000 l 472 1000 l 611 861 l 611 549 z "},"Q":{"ha":667,"x_min":56,"x_max":667,"o":"m 403 153 l 403 708 l 264 708 l 264 153 l 403 153 m 667 -54 l 195 -54 l 56 83 l 56 778 l 195 917 l 472 917 l 611 778 l 611 153 l 542 83 l 667 83 l 667 -54 z "},"R":{"ha":667,"x_min":56,"x_max":611,"o":"m 403 632 l 403 806 l 264 806 l 264 632 l 403 632 m 611 41 l 403 41 l 403 424 l 264 424 l 264 41 l 56 41 l 56 1014 l 472 1014 l 611 875 l 611 625 l 514 528 l 611 431 l 611 41 z "},"S":{"ha":667,"x_min":56,"x_max":611,"o":"m 611 167 l 472 28 l 195 28 l 56 167 l 56 306 l 264 306 l 264 236 l 403 236 l 403 410 l 195 410 l 56 549 l 56 861 l 195 1000 l 472 1000 l 611 861 l 611 722 l 403 722 l 403 791 l 264 791 l 264 618 l 472 618 l 611 479 l 611 167 z "},"T":{"ha":653,"x_min":14,"x_max":639,"o":"m 639 722 l 431 722 l 431 -40 l 222 -40 l 222 722 l 14 722 l 14 930 l 639 930 l 639 722 z "},"U":{"ha":667,"x_min":56,"x_max":611,"o":"m 611 195 l 472 56 l 195 56 l 56 195 l 56 1028 l 264 1028 l 264 264 l 403 264 l 403 1028 l 611 1028 l 611 195 z "},"V":{"ha":597,"x_min":-20,"x_max":618,"o":"m 618 903 l 437 -68 l 160 -68 l -20 903 l 187 903 l 298 254 l 410 903 l 618 903 z "},"W":{"ha":875,"x_min":-20,"x_max":896,"o":"m 896 917 l 715 -54 l 493 -54 l 437 268 l 382 -54 l 160 -54 l -20 917 l 187 917 l 298 379 l 382 917 l 493 917 l 576 379 l 688 917 l 896 917 z "},"X":{"ha":653,"x_min":14,"x_max":639,"o":"m 639 41 l 431 41 l 326 285 l 222 41 l 14 41 l 222 528 l 14 1014 l 222 1014 l 326 771 l 431 1014 l 639 1014 l 431 528 l 639 41 z "},"Y":{"ha":653,"x_min":14,"x_max":639,"o":"m 639 945 l 431 431 l 431 -26 l 222 -26 l 222 431 l 14 945 l 222 945 l 326 673 l 431 945 l 639 945 z "},"Z":{"ha":667,"x_min":56,"x_max":611,"o":"m 611 56 l 56 56 l 56 264 l 361 819 l 56 819 l 56 1028 l 611 1028 l 611 819 l 306 264 l 611 264 l 611 56 z "},"[":{"ha":458,"x_min":56,"x_max":403,"o":"m 403 -40 l 56 -40 l 56 1069 l 403 1069 l 403 861 l 264 861 l 264 167 l 403 167 l 403 -40 z "},"]":{"ha":458,"x_min":56,"x_max":403,"o":"m 403 -54 l 56 -54 l 56 153 l 195 153 l 195 847 l 56 847 l 56 1055 l 403 1055 l 403 -54 z "},"a":{"ha":597,"x_min":-20,"x_max":618,"o":"m 350 278 l 298 579 l 248 278 l 350 278 m 618 -68 l 410 -68 l 386 69 l 211 69 l 187 -68 l -20 -68 l 160 903 l 437 903 l 618 -68 z "},"b":{"ha":653,"x_min":56,"x_max":625,"o":"m 403 195 l 403 368 l 264 368 l 264 195 l 403 195 m 403 576 l 403 750 l 264 750 l 264 576 l 403 576 m 625 139 l 472 -12 l 56 -12 l 56 958 l 472 958 l 611 819 l 611 570 l 514 472 l 625 361 l 625 139 z "},"c":{"ha":667,"x_min":56,"x_max":611,"o":"m 611 180 l 472 41 l 195 41 l 56 180 l 56 875 l 195 1014 l 472 1014 l 611 875 l 611 667 l 403 667 l 403 806 l 264 806 l 264 250 l 403 250 l 403 389 l 611 389 l 611 180 z "},"d":{"ha":667,"x_min":56,"x_max":611,"o":"m 403 250 l 403 806 l 264 806 l 264 250 l 403 250 m 611 180 l 472 41 l 56 41 l 56 1014 l 472 1014 l 611 875 l 611 180 z "},"e":{"ha":597,"x_min":56,"x_max":542,"o":"m 542 41 l 56 41 l 56 1014 l 542 1014 l 542 806 l 264 806 l 264 632 l 542 632 l 542 424 l 264 424 l 264 250 l 542 250 l 542 41 z "},"f":{"ha":555,"x_min":56,"x_max":542,"o":"m 542 354 l 264 354 l 264 -26 l 56 -26 l 56 945 l 542 945 l 542 736 l 264 736 l 264 562 l 542 562 l 542 354 z "},"g":{"ha":667,"x_min":56,"x_max":611,"o":"m 611 153 l 472 14 l 195 14 l 56 153 l 56 847 l 195 986 l 472 986 l 611 847 l 611 639 l 403 639 l 403 778 l 264 778 l 264 222 l 403 222 l 403 326 l 334 326 l 334 534 l 611 534 l 611 153 z "},"h":{"ha":667,"x_min":56,"x_max":611,"o":"m 611 69 l 403 69 l 403 452 l 264 452 l 264 69 l 56 69 l 56 1042 l 264 1042 l 264 660 l 403 660 l 403 1042 l 611 1042 l 611 69 z "},"i":{"ha":319,"x_min":56,"x_max":264,"o":"m 264 -26 l 56 -26 l 56 945 l 264 945 l 264 -26 z "},"j":{"ha":625,"x_min":14,"x_max":570,"o":"m 570 180 l 431 41 l 153 41 l 14 180 l 14 389 l 222 389 l 222 250 l 361 250 l 361 1014 l 570 1014 l 570 180 z "},"k":{"ha":667,"x_min":56,"x_max":611,"o":"m 611 56 l 403 56 l 264 444 l 264 56 l 56 56 l 56 1028 l 264 1028 l 264 639 l 403 1028 l 611 1028 l 437 542 l 611 56 z "},"l":{"ha":555,"x_min":56,"x_max":542,"o":"m 542 -68 l 56 -68 l 56 903 l 264 903 l 264 139 l 542 139 l 542 -68 z "},"m":{"ha":806,"x_min":56,"x_max":750,"o":"m 750 41 l 542 41 l 542 389 l 403 41 l 264 389 l 264 41 l 56 41 l 56 1014 l 264 1014 l 403 667 l 542 1014 l 750 1014 l 750 41 z "},"n":{"ha":667,"x_min":56,"x_max":611,"o":"m 611 56 l 403 56 l 264 444 l 264 56 l 56 56 l 56 1028 l 264 1028 l 403 639 l 403 1028 l 611 1028 l 611 56 z "},"o":{"ha":667,"x_min":56,"x_max":611,"o":"m 403 167 l 403 722 l 264 722 l 264 167 l 403 167 m 611 97 l 472 -40 l 195 -40 l 56 97 l 56 791 l 195 930 l 472 930 l 611 791 l 611 97 z "},"p":{"ha":625,"x_min":56,"x_max":611,"o":"m 403 534 l 403 708 l 264 708 l 264 534 l 403 534 m 611 465 l 472 326 l 264 326 l 264 -54 l 56 -54 l 56 917 l 472 917 l 611 778 l 611 465 z "},"q":{"ha":667,"x_min":56,"x_max":667,"o":"m 403 222 l 403 778 l 264 778 l 264 222 l 403 222 m 667 14 l 195 14 l 56 153 l 56 847 l 195 986 l 472 986 l 611 847 l 611 222 l 542 153 l 667 153 l 667 14 z "},"r":{"ha":667,"x_min":56,"x_max":611,"o":"m 403 534 l 403 708 l 264 708 l 264 534 l 403 534 m 611 -54 l 403 -54 l 403 326 l 264 326 l 264 -54 l 56 -54 l 56 917 l 472 917 l 611 778 l 611 528 l 514 431 l 611 334 l 611 -54 z "},"s":{"ha":667,"x_min":56,"x_max":611,"o":"m 611 97 l 472 -40 l 195 -40 l 56 97 l 56 236 l 264 236 l 264 167 l 403 167 l 403 340 l 195 340 l 56 479 l 56 791 l 195 930 l 472 930 l 611 791 l 611 653 l 403 653 l 403 722 l 264 722 l 264 549 l 472 549 l 611 410 l 611 97 z "},"t":{"ha":653,"x_min":14,"x_max":639,"o":"m 639 819 l 431 819 l 431 56 l 222 56 l 222 819 l 14 819 l 14 1028 l 639 1028 l 639 819 z "},"u":{"ha":667,"x_min":56,"x_max":611,"o":"m 611 111 l 472 -26 l 195 -26 l 56 111 l 56 945 l 264 945 l 264 180 l 403 180 l 403 945 l 611 945 l 611 111 z "},"v":{"ha":597,"x_min":-20,"x_max":618,"o":"m 618 986 l 437 14 l 160 14 l -20 986 l 187 986 l 298 338 l 410 986 l 618 986 z "},"w":{"ha":875,"x_min":-20,"x_max":896,"o":"m 896 1014 l 715 41 l 493 41 l 437 366 l 382 41 l 160 41 l -20 1014 l 187 1014 l 298 476 l 382 1014 l 493 1014 l 576 476 l 688 1014 l 896 1014 z "},"x":{"ha":653,"x_min":14,"x_max":639,"o":"m 639 -26 l 431 -26 l 326 215 l 222 -26 l 14 -26 l 222 458 l 14 945 l 222 945 l 326 701 l 431 945 l 639 945 l 431 458 l 639 -26 z "},"y":{"ha":653,"x_min":14,"x_max":639,"o":"m 639 1000 l 431 486 l 431 28 l 222 28 l 222 486 l 14 1000 l 222 1000 l 326 729 l 431 1000 l 639 1000 z "},"z":{"ha":667,"x_min":56,"x_max":611,"o":"m 611 -54 l 56 -54 l 56 153 l 361 708 l 56 708 l 56 917 l 611 917 l 611 708 l 306 153 l 611 153 l 611 -54 z "},"{":{"ha":514,"x_min":28,"x_max":458,"o":"m 458 -110 l 250 -110 l 111 28 l 111 347 l 28 416 l 28 472 l 111 542 l 111 861 l 250 1000 l 458 1000 l 458 791 l 319 791 l 319 514 l 250 444 l 319 375 l 319 97 l 458 97 l 458 -110 z "},"}":{"ha":514,"x_min":56,"x_max":486,"o":"m 486 472 l 403 403 l 403 83 l 264 -54 l 56 -54 l 56 153 l 195 153 l 195 431 l 264 500 l 195 570 l 195 847 l 56 847 l 56 1055 l 264 1055 l 403 917 l 403 597 l 486 528 l 486 472 z "},"":{"ha":319,"x_min":56,"x_max":264,"o":"m 264 639 l 56 639 l 56 847 l 195 986 l 195 847 l 264 847 l 264 639 z "},"":{"ha":319,"x_min":56,"x_max":264,"o":"m 264 736 l 125 597 l 125 736 l 56 736 l 56 945 l 264 945 l 264 736 z "},"":{"ha":319,"x_min":56,"x_max":264,"o":"m 264 14 l 125 -123 l 125 14 l 56 14 l 56 222 l 264 222 l 264 14 z "},"":{"ha":583,"x_min":56,"x_max":528,"o":"m 264 597 l 56 597 l 56 806 l 195 945 l 195 806 l 264 806 l 264 597 m 528 597 l 319 597 l 319 806 l 458 945 l 458 806 l 528 806 l 528 597 z "},"":{"ha":583,"x_min":56,"x_max":528,"o":"m 264 736 l 125 597 l 125 736 l 56 736 l 56 945 l 264 945 l 264 736 m 528 736 l 389 597 l 389 736 l 319 736 l 319 945 l 528 945 l 528 736 z "},"":{"ha":583,"x_min":56,"x_max":528,"o":"m 264 14 l 125 -123 l 125 14 l 56 14 l 56 222 l 264 222 l 264 14 m 528 14 l 389 -123 l 389 14 l 319 14 l 319 222 l 528 222 l 528 14 z "}," ":{"ha":555,"x_min":0,"x_max":0,"o":""}}}
